<?xml version="1.0" encoding="UTF-8"?>
<svg xmlns="http://www.w3.org/2000/svg" viewBox="26 187 460 138">
  <defs>
    <mask id="knockout">
      <!-- Banner in white = visible -->
      <path fill="white" d="M28.5,189.18v133.65h165.31c-1.27-.9-2.46-1.86-3.52-2.87-9.44-9.13-9.57-19.73-9.84-29.67v-56.38h30.2v59.2c0,4.03.14,8.19,3.51,11.41,2.43,2.55,6.07,3.49,9.57,3.49,4.72,0,7.82-1.75,9.58-3.35,3.5-3.36,3.64-7.52,3.64-11.55v-59.2h30.34v50.48c0,10.87,0,24.97-11.19,35.57-1.07,1-2.25,1.96-3.52,2.87h45.23c-13.31-9.55-19.57-25.51-19.57-41,0-25.51,17.13-51.42,49.35-51.42,14.43,0,28.18,5.1,38.16,15.31,4.05,4.16,5.93,7.38,7.95,11.14l-25.21,12.49c-2.43-5.64-7.01-15.71-19.69-15.71-6.61,0-10.79,3.09-12.81,5.1-7.15,6.84-7.15,17.58-7.15,21.35,0,14.09,5.26,27.38,20.09,27.38,14.02,0,18.2-12.35,19.28-15.57l25.62,12.35c-2.43,4.56-4.72,8.86-9.3,13.42-1.97,1.93-4.1,3.64-6.35,5.15h27.7v-89.06h30.06v70h39.02v19.06h28.54v-133.65H28.5"/>
      <!-- All white detail paths in black = cut through -->
      <path fill="black" d="M165.15,255.17c-.06-.01-16.27-3.5-16.27-3.5,0,0-16.23,3.49-16.26,3.5-.09.02-.06.09-.06.09l.22.83h.05s0,0,0,0c0,0,.25-.03.4.2l.24,1.34s0,.09.1.09h30.64c.08,0,.09-.07.09-.07l.24-1.34c.14-.26.41-.23.41-.23h0s.04,0,.04,0l.23-.83s.03-.08-.06-.09 M163.45,258.16s.03-.01.03-.04v-.42s-.02,0-.03,0h-2.47s-.04-.02-.04,0v.42s.02.04.04.04h.1s.05.05.05.1c0,.06.03.38.25.58.03.03.02.11-.05.11h-.08c-.06,0-.06.04-.04.07.02.04.03.15.03.2v.18s0,.06.04.06h.04s.02,0,.02.03v9.13s-.12.13-.13.13c0,0-.02.02-.02.03v.15s0,.03-.01.03c0,0-.02.01-.03.01h-.11s-.04.02-.04.04v.26h2.42v-.26s-.02-.04-.03-.04h-.11s-.03,0-.04-.01c0,0-.01-.02-.01-.03v-.15s0-.02-.02-.03c-.02-.01-.09-.09-.13-.13v-9.13s.02-.03.02-.03h.03s.04-.03.04-.06v-.18c0-.05,0-.16.03-.2.02-.03.02-.07-.04-.07h-.07c-.07,0-.08-.08-.05-.11.23-.19.25-.51.25-.57,0-.06,0-.11.06-.11h.1 M158.12,258.16s.03-.01.03-.04v-.42s-.02,0-.03,0h-2.48s-.03-.02-.03,0v.42s.02.04.03.04h.11s.05.05.05.1c0,.06.03.38.25.58.03.03.02.11-.04.11h-.07c-.06,0-.06.04-.05.07.02.04.03.15.03.2v.18s0,.06.04.06h.04s.03,0,.03.03c0,.02,0,.04,0,.04v9.09s-.13.13-.13.13c0,0-.01.02-.01.03v.15s0,.03-.01.03c0,0-.02.01-.03.01h-.12s-.03.02-.03.04v.26h2.42v-.26s-.02-.04-.03-.04h-.12s-.03,0-.03-.01c0,0-.01-.02-.01-.03v-.15s0-.02-.02-.03c-.01-.01-.09-.09-.13-.13v-9.13s.03-.03.03-.03h.03s.03-.03.03-.06v-.18c0-.05.01-.16.03-.2.02-.03,0-.07-.05-.07h-.07c-.07,0-.08-.08-.05-.11.23-.19.25-.51.25-.57,0-.06,0-.11.06-.11h.11 M152.79,258.16s.03-.01.03-.04v-.42s-.01,0-.03,0h-2.47s-.04-.02-.04,0v.42s.02.04.04.04h.11s.05.05.05.1c0,.06.03.38.25.58.03.03.02.11-.05.11h-.08c-.06,0-.06.04-.04.07.02.04.03.15.03.2v.18s0,.06.03.06h.04s.03,0,.03.03v9.13s-.13.13-.13.13c0,0-.02.02-.02.03v.15s0,.03,0,.03c0,0-.02.01-.03.01h-.11s-.04.02-.04.04v.26h2.42v-.26s-.02-.04-.04-.04h-.11s-.03,0-.04-.01c0,0-.01-.02-.01-.03v-.15s0-.02-.01-.03c-.01-.01-.09-.09-.13-.13v-9.13s.03-.03.03-.03h.03s.04-.03.04-.06v-.18c0-.05,0-.16.03-.2.02-.03.02-.07-.04-.07h-.08c-.07,0-.08-.08-.04-.11.22-.19.25-.51.25-.57,0-.06,0-.11.06-.11h.1 M147.46,258.16s.03-.01.03-.04v-.42s-.02,0-.03,0h-2.48s-.03-.02-.03,0v.42s.01.04.03.04h.11s.05.05.05.1c0,.06.03.38.25.58.03.03.02.11-.05.11h-.07c-.06,0-.06.04-.04.07.02.04.03.15.03.2v.18s0,.06.04.06h.04s.03,0,.03.03v9.13s-.13.13-.13.13c0,0-.01.02-.01.03v.15s0,.03-.01.03c0,0-.02.01-.04.01h-.11s-.03.02-.03.04v.26h2.42v-.26s-.02-.04-.03-.04h-.12s-.03,0-.03-.01c0,0,0-.02,0-.03v-.15s0-.02-.02-.03c-.01-.01-.09-.09-.13-.13v-9.09s0-.01,0-.04c0-.03.03-.03.03-.03h.04s.03-.03.03-.06v-.18c0-.05,0-.16.03-.2.02-.03.01-.07-.04-.07h-.07c-.07,0-.08-.08-.05-.11.23-.19.25-.51.25-.57,0-.06,0-.11.06-.11h.11 M142.12,258.16s.04-.01.04-.04v-.42s-.02,0-.04,0h-2.47s-.04-.02-.04,0v.42s.02.04.04.04h.1c.05,0,.06.05.06.1,0,.06.03.38.25.58.03.03.02.11-.05.11h-.08c-.06,0-.06.04-.04.07.02.04.03.15.03.2v.18s0,.06.04.06h.03s.03,0,.03.03v9.13s-.13.13-.13.13c0,0-.02.02-.02.03v.15s0,.03-.01.03c0,0-.02.01-.03.01h-.11s-.04.02-.04.04v.26h2.42v-.26s-.02-.04-.03-.04h-.12s-.02,0-.03-.01c0,0-.01-.02-.01-.03v-.15s0-.02-.02-.03c-.01-.01-.09-.09-.13-.13v-9.13s.03-.03.03-.03h.03s.04-.03.04-.06v-.18c0-.05,0-.16.03-.2.02-.03.01-.07-.04-.07h-.08c-.07,0-.08-.08-.05-.11.23-.19.25-.51.25-.57,0-.06,0-.11.06-.11h.1 M136.79,258.16s.04-.01.04-.04v-.42s-.02,0-.04,0h-2.47s-.03-.02-.03,0v.42s.02.04.03.04h.11s.05.05.05.1c0,.06.03.38.25.58.03.03.02.11-.05.11h-.08c-.06,0-.06.04-.04.07.02.04.02.15.02.2v.18s0,.06.04.06h.04s.03,0,.03.03v9.13s-.12.13-.13.13c0,0-.02.02-.02.03v.15s0,.03,0,.03c0,0-.02.01-.04.01h-.11s-.04.02-.04.04v.26h2.42v-.26s-.02-.04-.03-.04h-.12s-.03,0-.03-.01c0,0-.01-.02-.01-.03v-.15s0-.02-.01-.03c-.01-.01-.1-.09-.13-.13v-9.13s.02-.03.02-.03h.03s.04-.03.04-.06v-.18c0-.05,0-.16.03-.2.01-.03.01-.07-.04-.07h-.07c-.07,0-.08-.08-.05-.11.23-.19.25-.51.25-.57,0-.06,0-.11.06-.11h.1 M156.45,248.53h-.25c-.07,0-.06-.06-.06-.06v-.27c0-.07-.07-.07-.07-.07h-.25c-.07,0-.07-.06-.07-.06v-.25s0-.06-.06-.06h-.15c-.05,0-.11-.04-.11-.12,0-.35.11-2.78-1.18-4.55-1.01-1.52-2.41-2.29-3.18-2.65-.02-.33-.48-.45-.69-.52-.11-.04-.2-.08-.2-.18,0,0,0-.11,0-.11,0-.1.09-.14.23-.14.04,0,.08-.04.08-.06v-.3s-.04-.09-.1-.09c-.1,0-.22,0-.28,0-.07,0-.1-.06-.1-.1v-.15c0-.09-.07-.14-.12-.16v-1.82c0-.06.05-.05.09-.05,0,0,.02,0,.02,0h0s.04-.02.04-.04v-.17s-.02-.04-.04-.04h-.08s-.05-.05-.05-.13.03-.12.06-.13h.07s.04-.02.04-.04v-.18s-.02-.04-.04-.04h-.09s-.07-.02-.11-.06c-.31-.25-.62-.6-.62-.65v-.07s-.04-.11-.12-.11-.07-.09-.03-.09c.03,0,.04,0,.04-.05v-.12c0-.05-.16-.27-.16-.27h-.01s-.16.22-.16.27v.12s.01.05.04.05c.04,0,.06.09-.02.09-.09,0-.12.07-.12.11,0,.04,0,.04,0,.07,0,.05-.31.41-.62.65-.04.03-.07.05-.11.06h-.09s-.04.02-.04.04v.18s.02.04.04.04h.07s.06.05.06.13-.02.12-.05.13h-.08s-.04.02-.04.04v.17s.02.04.04.04h0s.02,0,.02,0c.04,0,.09,0,.09.05v1.82c-.05.03-.12.07-.12.16v.15s-.03.1-.1.1c-.06,0-.18,0-.28,0-.06,0-.1.05-.1.09v.3s.03.07.08.06c.14,0,.24.04.24.14,0,0,0,.11,0,.11,0,.1-.1.14-.2.18-.2.07-.67.2-.68.52-.77.36-2.17,1.13-3.18,2.65-1.29,1.77-1.17,4.2-1.18,4.55,0,.07-.06.12-.11.12h-.15c-.06,0-.06.06-.06.06v.25s0,.06-.06.06h-.25s-.06,0-.06.07v.27s0,.06-.07.06h-.25s-.07,0-.07.07v.3s.02.04.04.04c.08,0,.23.08.23.25,0,.29.18.31.25.31v1.06c0,.25-.19.34-.3.37-.02,0-.05.03-.05.06v1.09l7.46-1.65h.01l7.46,1.65v-1.09s-.03-.06-.06-.06c-.11-.03-.3-.12-.3-.37v-1.06c.07,0,.25-.03.25-.31,0-.17.15-.24.23-.25.03,0,.05-.01.05-.04v-.3c0-.07-.07-.07-.07-.07 M164.7,272.37v-2.18h-1.27v-.95h-29.08v.95h-1.28v2.18h-1.28v2.2h34.2s0-2.2,0-2.2h-1.28"/>
    </mask>
  </defs>
  <rect x="26" y="187" width="460" height="138" fill="white" mask="url(#knockout)"/>
</svg>