<?xml version="1.0" encoding="utf-8"?>
<!-- Generator: Adobe Illustrator 26.0.3, SVG Export Plug-In . SVG Version: 6.00 Build 0)  -->
<svg version="1.0" id="katman_1" xmlns="http://www.w3.org/2000/svg" xmlns:xlink="http://www.w3.org/1999/xlink" x="0px" y="0px"
	 viewBox="121.1 228.8 556.5 141.5" style="enable-background:new 121.1 228.8 556.5 141.5;" xml:space="preserve">
<style type="text/css">
	.st0{clip-path:url(#SVGID_00000048477287091057106360000012181871390729996929_);}
	.st1{fill-rule:evenodd;clip-rule:evenodd;fill:#ffffff;}
</style>
<g>
	<defs>
		<rect id="SVGID_1_" x="121.1" y="228.8" width="556.5" height="141.5"/>
	</defs>
	<clipPath id="SVGID_00000005248416365943559250000006574637391137659568_">
		<use xlink:href="#SVGID_1_"  style="overflow:visible;"/>
	</clipPath>
	<g style="clip-path:url(#SVGID_00000005248416365943559250000006574637391137659568_);">
		<path class="st1" d="M294.7,255.3c-24.8,0-44.9,19.8-44.9,44.3c0,24.3,20.1,44.1,44.7,44.2c24.8,0,45.2-19.8,45.2-44.1
			C339.7,275.4,319.4,255.3,294.7,255.3z M362.2,299.5c0,36.4-30.3,66.1-67.6,66.1c-36.8,0-67.5-29.9-67.5-66
			c0-36.2,30.6-66.1,67.8-66.1C331.8,233.6,362.1,263.3,362.2,299.5z"/>
		<path class="st1" d="M467.6,277.3c-0.5,1.2-1.1,2.4-1.4,3.6c-4.8,16.1-9.5,32.2-14.3,48.3c-1.4,4.7-3,5.9-7.8,6
			c-3.8,0-7.5,0-11.3,0c-4.8,0-7.1-1.9-8.4-6.5c-4.7-15.9-9.4-31.7-14.1-47.6c-0.3-1.1-0.9-2.2-1.3-3.3c-0.3,0-0.6,0.1-1,0.1
			c-0.2,1-0.5,2-0.5,3.1c-0.8,21.2-1.6,42.4-2.4,63.7c-0.2,4.7-1.3,6.2-6,6.5c-3.9,0.2-7.8,0.3-11.7,0c-5.7-0.4-7.5-2.6-7-8.4
			c0.9-10.1,2-20.1,3-30.2c1.7-17.7,3.3-35.5,5.1-53.2c0.6-6.2,2.6-7.8,8.8-7.8c5.2,0,10.3-0.1,15.5,0c5.5,0.1,7.7,1.9,9.2,7.2
			c4.7,15.9,9.3,31.8,14,47.6c0.5,1.6,1.2,3.1,2.2,5.7c0.9-2,1.5-2.9,1.8-3.9c5.3-16.6,10.5-33.2,15.7-49.9c1.6-5,3.1-6.5,8.3-6.6
			c6.2-0.2,12.3-0.2,18.5,0c5,0.1,7.3,2.6,7.8,7.9c1.3,17,2.6,34,3.9,51c0.9,10.8,1.9,21.7,2.9,32.5c0.6,6.1-0.7,7.9-6.8,8.2
			c-3.6,0.2-7.3,0.2-10.9,0c-4.5-0.3-6-1.8-6.3-6.4c-1-16-1.9-32-2.9-48.1c-0.3-5.3-0.6-10.6-0.9-15.9c-0.1-1.1-0.4-2.2-0.6-3.3
			C468.3,277.5,468,277.4,467.6,277.3z"/>
		<path class="st1" d="M121.2,303.4c0-14.7,0-29.3,0-44c0-4.9,1.6-7.3,6.2-7.7c4-0.4,8.1-0.4,12.1,0c4.6,0.4,6.9,3.4,6.8,9.1
			c-0.1,9.2-0.4,18.4-0.6,27.7c-0.1,5.2,0,5.2,5.1,5.2c9.8,0,19.6-0.1,29.3,0.1c3.1,0,4.3-0.7,4.2-4.2c-0.3-10-0.2-20-0.2-30
			c0-5.5,1.7-7.6,7.1-7.9c3.3-0.2,6.6-0.2,9.9,0c5,0.2,7.6,2.5,7.7,7.7c0.2,7.7-0.1,15.4-0.2,23.1c-0.2,16.3-0.4,32.6-0.5,48.9
			c0,4,0.5,8.1,0.6,12.1c0.2,5.1-1.4,7.2-6.1,7.7c-4,0.4-8.1,0.3-12.1,0c-3.7-0.3-6.2-2.4-6.5-6.4c-0.3-2.9-0.4-5.8-0.3-8.7
			c0.1-7.5,0.3-14.9,0.5-22.4c0.1-2.2-0.7-3.2-3-3.2c-11,0.1-22,0.1-33,0c-2.1,0-2.9,0.9-2.8,2.9c0.2,9.6,0.3,19.2,0.8,28.8
			c0.3,5.6-1.4,8.6-6.8,9c-3.6,0.3-7.3,0.3-11,0c-4.7-0.3-7.1-3-7.1-8.3c-0.1-10.2,0.2-20.5,0.3-30.7c0-2.9,0-5.8,0-8.7
			C121.4,303.4,121.3,303.4,121.2,303.4z"/>
		<path class="st1" d="M618.2,282.3L618.2,282.3c0,4.7,0,9.5,0,14.2c0,1.8,0.4,2.9,2.6,2.8c5.3-0.3,10.6,0,15.8-0.8
			c8.1-1.1,12.4-6.9,12.5-15.5c0.1-8.7-4.5-14.9-12.4-16.1c-4.9-0.7-10-0.5-15-0.8c-2.8-0.2-3.6,1-3.5,3.5
			C618.3,273.8,618.2,278,618.2,282.3z M593.7,297.9c0-13.4,0-26.7,0-40.1c0-6,2.1-8.7,8.1-8.7c13.6,0,27.2-0.4,40.7,0.7
			c24.3,1.9,38.1,25,27.5,45.6c-2.3,4.4-6.5,8-10.2,11.5c-1.7,1.6-2.3,2.5-0.9,4.6c4.9,7.2,9.5,14.6,14.4,21.8
			c3.6,5.4,3,7.9-2.6,11.4c-2.4,1.5-4.8,3-7.3,4.4c-4.6,2.6-7.9,2-11.2-2c-1.2-1.5-2.2-3.1-3.2-4.7c-4.9-7.8-9.9-15.5-14.5-23.5
			c-2-3.5-4.4-4.9-8.6-4.7c-8.4,0.3-6.8-0.2-7.1,6.7c-0.2,6.1,0.1,12.2,0.2,18.3c0.1,6.4-1.8,8.3-8.4,8.4c-2.6,0-5.2,0-7.8,0
			c-6.5-0.1-9.1-2.5-9.3-8.9c-0.1-4.2,0-8.5,0-12.7c0-9.4,0-18.7,0-28.1H593.7z"/>
		<path class="st1" d="M511.9,259.9c0-6.1,1.9-8.4,7.9-8.4c16.9-0.1,33.8-0.1,50.7,0c5.5,0,7,1.8,7,7.5c0,1.6,0,3.3,0,4.9
			c0,5.8-1.8,7.6-7.7,7.6c-9.6,0-19.3,0.1-28.9-0.2c-3.4-0.1-4.3,1.1-4.2,4.4c0.2,4.7,0.1,9.4,0,14c-0.1,2.5,0.9,3.3,3.3,3.3
			c7.9-0.1,15.8-0.1,23.6-0.2c5.4,0,6.8,1.4,6.9,7c0.1,10,0.1,10-9.9,10c-6.8,0-13.5,0.1-20.3,0c-3.2-0.1-4.1,1.3-4,4.3
			c0.2,4.3,0.3,8.6,0.1,12.9c-0.1,3.6,1,4.9,4.7,4.7c9.6-0.4,19.3-0.4,28.9-0.5c5.8-0.1,7.4,1.6,7.4,7.3c0,2.8-0.1,5.6,0,8.4
			c0.1,2.5-1.1,3.8-3.5,4.1c-1.6,0.2-3.2,0.3-4.8,0.4c-15.5,0-31,0-46.5,0c-8.2,0-10.7-2.5-10.8-10.9c-0.1-12.3,0-24.6,0-36.8
			C511.9,289,511.9,274.5,511.9,259.9z"/>
	</g>
</g>
</svg>
