<svg width="150" height="34" viewBox="0 0 150 34" fill="none" xmlns="http://www.w3.org/2000/svg">
<g id="Layer 2">
<g id="Layer 1">
<path id="Vector" d="M17.0898 10.68L10.7198 4.31996C10.529 4.11463 10.2761 3.97761 9.99983 3.92996C9.85021 3.91751 9.6997 3.93891 9.55948 3.99258C9.41925 4.04624 9.29291 4.13079 9.18983 4.23996L3.99983 9.46996C3.79126 9.68472 3.63356 9.94358 3.53836 10.2274C3.44317 10.5113 3.41292 10.8129 3.44983 11.11V15.63C3.44948 16.2449 3.68817 16.8359 4.11547 17.2781C4.54277 17.7204 5.12524 17.9792 5.73983 18H13.1498C13.3998 18 13.6398 18.25 13.8098 18.43L17.1698 21.88C17.2992 22.0068 17.4605 22.0961 17.6366 22.1384C17.8127 22.1806 17.997 22.1743 18.1698 22.12C18.3377 22.054 18.4799 21.9357 18.5754 21.7826C18.6708 21.6295 18.7145 21.4498 18.6998 21.27V18H21.3898C21.6984 18.0006 22.0037 17.9379 22.287 17.8155C22.5702 17.6932 22.8253 17.5139 23.0363 17.2888C23.2473 17.0637 23.4098 16.7977 23.5136 16.5071C23.6174 16.2166 23.6604 15.9078 23.6398 15.6V11.45H18.8998C18.5603 11.4607 18.2226 11.3973 17.91 11.2644C17.5974 11.1314 17.3176 10.932 17.0898 10.68Z" fill="#ffffff" style="fill:#ffffff;fill:#ffffff;fill-opacity:1;"/>
<path id="Vector_2" d="M26.7 8.09001L19.24 0.540014C18.7044 0.143684 18.0446 -0.0478655 17.38 1.37729e-05H9.75C9.00728 0.00989125 8.29464 0.294949 7.75 0.800014L0.37 8.10001C0.257846 8.19091 0.166702 8.30501 0.102833 8.43448C0.0389629 8.56394 0.00388168 8.7057 0 8.85001C0.00100827 8.97742 0.028185 9.10326 0.0798442 9.21973C0.131503 9.33619 0.206543 9.44081 0.300308 9.52707C0.394073 9.61333 0.504564 9.67941 0.624925 9.7212C0.745287 9.76299 0.872952 9.77961 1 9.77001C1.32927 9.73777 1.63357 9.58025 1.85 9.33001C2.72 8.45001 7.99 3.19001 8.1 3.08001C8.60361 2.57528 9.287 2.29114 10 2.29001C10.3436 2.29314 10.6828 2.36765 10.9961 2.50881C11.3095 2.64997 11.59 2.8547 11.82 3.11001L18.26 9.55001C18.3466 9.63473 18.4502 9.69997 18.5641 9.74136C18.6779 9.78275 18.7992 9.79934 18.92 9.79001H26.11C26.2984 9.79517 26.484 9.74358 26.6427 9.64194C26.8014 9.5403 26.9259 9.39329 27 9.22001C27.0637 9.02273 27.0693 8.81128 27.0161 8.61091C26.9629 8.41053 26.8532 8.2297 26.7 8.09001Z" fill="#ffffff" style="fill:#ffffff;fill:#ffffff;fill-opacity:1;"/>
<path id="Vector_3" d="M39.3201 9.86001H33.2601V4.14001H30.8701V17.96H33.2601V12.16H39.3201V17.96H41.7001V4.14001H39.3201V9.86001Z" fill="#ffffff" style="fill:#ffffff;fill:#ffffff;fill-opacity:1;"/>
<path id="Vector_4" d="M51.9995 8.99996C51.2198 8.22797 50.2213 7.7149 49.1397 7.53053C48.0581 7.34615 46.9459 7.49943 45.9545 7.96951C44.9631 8.4396 44.1406 9.20366 43.5988 10.1578C43.057 11.1119 42.8223 12.2097 42.9265 13.302C43.0308 14.3942 43.4689 15.4278 44.1814 16.2622C44.8939 17.0966 45.8462 17.6913 46.9086 17.9653C47.971 18.2394 49.0921 18.1795 50.1193 17.7939C51.1465 17.4082 52.03 16.7155 52.6495 15.81C53.3368 14.7718 53.6472 13.5294 53.5289 12.29C53.4106 11.0506 52.8708 9.88932 51.9995 8.99996ZM48.1995 15.92C47.5789 15.9203 46.9734 15.7281 46.4665 15.3699C45.9597 15.0117 45.5764 14.5051 45.3695 13.92C45.166 13.3167 45.1407 12.6675 45.2968 12.0503C45.4529 11.4331 45.7837 10.8739 46.2495 10.44C46.7352 10.0256 47.3403 9.777 47.9769 9.73024C48.6136 9.68348 49.2486 9.84102 49.7895 10.18C50.311 10.5304 50.7186 11.0258 50.9621 11.6051C51.2055 12.1843 51.2741 12.8222 51.1595 13.44C51.0266 14.1289 50.6611 14.7512 50.124 15.2027C49.5869 15.6542 48.911 15.9074 48.2095 15.92H48.1995Z" fill="#ffffff" style="fill:#ffffff;fill:#ffffff;fill-opacity:1;"/>
<path id="Vector_5" d="M69.2697 8.63997C68.9034 8.23953 68.4477 7.93117 67.9397 7.73997C67.3531 7.52814 66.7333 7.42315 66.1097 7.42997C65.4099 7.42208 64.7203 7.59793 64.1097 7.93997C63.6283 8.20082 63.2088 8.56236 62.8797 8.99997C62.6067 8.55213 62.2249 8.18061 61.7697 7.91997C61.1343 7.57869 60.4207 7.40975 59.6997 7.42997C59.1105 7.4264 58.5285 7.55992 57.9997 7.81997C57.6741 7.98497 57.377 8.20104 57.1197 8.45997V7.62997H54.7197V18H57.0897V12.22C57.0297 11.503 57.2401 10.7895 57.6797 10.22C57.8818 10.0008 58.1304 9.82954 58.4073 9.71881C58.6841 9.60807 58.9822 9.56063 59.2797 9.57997C59.5581 9.55472 59.8386 9.59289 60.1002 9.69161C60.3617 9.79034 60.5975 9.94705 60.7897 10.15C61.1336 10.6365 61.3028 11.2251 61.2697 11.82V18H63.6697V12.12C63.612 11.428 63.8154 10.7395 64.2397 10.19C64.4393 9.97975 64.6822 9.81543 64.9515 9.70837C65.2209 9.60132 65.5103 9.55409 65.7997 9.56997C66.0904 9.5405 66.3839 9.58145 66.6555 9.68937C66.927 9.79728 67.1686 9.96899 67.3597 10.19C67.7111 10.7002 67.8866 11.311 67.8597 11.93V17.93H70.2897V11.82C70.2824 11.2024 70.1847 10.5892 69.9997 9.99997C69.855 9.50024 69.6062 9.03677 69.2697 8.63997Z" fill="#ffffff" style="fill:#ffffff;fill:#ffffff;fill-opacity:1;"/>
<path id="Vector_6" d="M79.6796 14.5001C79.4065 14.9464 79.0333 15.323 78.5896 15.6001C78.0856 15.8897 77.5104 16.0317 76.9296 16.0101C76.1587 16.0405 75.4015 15.7999 74.7896 15.3301C74.2889 14.9216 73.9374 14.3591 73.7896 13.7301H82.1096V12.7301C82.1326 11.6426 81.814 10.5753 81.1987 9.6784C80.5834 8.78146 79.7024 8.10005 78.6796 7.73007C77.6294 7.37128 76.4955 7.33678 75.4255 7.63105C74.3554 7.92532 73.3986 8.53474 72.6796 9.38007C71.8903 10.356 71.4628 11.5749 71.4696 12.8301C71.4531 13.7678 71.6896 14.6927 72.1541 15.5074C72.6187 16.3221 73.2942 16.9967 74.1096 17.4601C74.933 17.888 75.8417 18.1263 76.7692 18.1574C77.6966 18.1886 78.6193 18.0118 79.4696 17.6401C80.3643 17.1799 81.1203 16.4895 81.6596 15.6401L81.7696 15.4701L79.7696 14.3001L79.6796 14.5001ZM73.8996 11.6401C74.0911 11.0785 74.4378 10.5827 74.8996 10.2101C75.4525 9.78876 76.1262 9.55644 76.8213 9.54744C77.5164 9.53844 78.1959 9.75322 78.7596 10.1601C79.2214 10.5382 79.5449 11.0586 79.6796 11.6401H73.8996Z" fill="#ffffff" style="fill:#ffffff;fill:#ffffff;fill-opacity:1;"/>
<path id="Vector_7" d="M87.37 4.14001L82 18H84.51L85.58 15.12H91.39L92.51 18H95L89.66 4.14001H87.37ZM90.56 12.79H86.47L88.47 7.38001L90.56 12.79Z" fill="#ffffff" style="fill:#ffffff;fill:#ffffff;fill-opacity:1;"/>
<path id="Vector_8" d="M103.17 8.70001C102.825 8.36559 102.43 8.08572 102 7.87001C101.357 7.58172 100.66 7.43269 99.9553 7.43269C99.2504 7.43269 98.5535 7.58172 97.9103 7.87001C96.7007 8.4088 95.7422 9.38876 95.2303 10.61C94.709 11.841 94.6496 13.2189 95.063 14.4902C95.4764 15.7615 96.3347 16.8409 97.4803 17.53C98.1632 17.9115 98.9262 18.1274 99.7077 18.1604C100.489 18.1934 101.268 18.0426 101.98 17.72C102.432 17.4986 102.844 17.2047 103.2 16.85V18H105.54V4.14001H103.21L103.17 8.70001ZM100.17 15.96C99.5329 15.9602 98.9112 15.762 98.3916 15.3928C97.8719 15.0237 97.48 14.502 97.2703 13.9C97.0528 13.2888 97.0202 12.627 97.1767 11.9974C97.3332 11.3678 97.6719 10.7982 98.1503 10.36C98.6416 9.94426 99.2498 9.69117 99.891 9.63564C100.532 9.58012 101.175 9.7249 101.73 10.05C102.285 10.3984 102.721 10.9073 102.98 11.5092C103.239 12.1111 103.309 12.7775 103.18 13.42C103.06 14.1273 102.699 14.771 102.157 15.2415C101.615 15.712 100.927 15.98 100.21 16L100.17 15.96Z" fill="#ffffff" style="fill:#ffffff;fill:#ffffff;fill-opacity:1;"/>
<path id="Vector_9" d="M111.83 14.77L109.11 7.63H106.59L110.65 17.96H112.86L117.14 7.63H114.66L111.83 14.77Z" fill="#ffffff" style="fill:#ffffff;fill:#ffffff;fill-opacity:1;"/>
<path id="Vector_10" d="M120.64 7.63H118.25V17.96H120.64V7.63Z" fill="#ffffff" style="fill:#ffffff;fill:#ffffff;fill-opacity:1;"/>
<path id="Vector_11" d="M119.43 3.23002C119.1 3.22531 118.777 3.32539 118.507 3.51586C118.238 3.70633 118.036 3.97738 117.93 4.29002C117.79 4.60726 117.756 4.96121 117.834 5.2992C117.911 5.63719 118.095 5.94116 118.359 6.16589C118.624 6.39062 118.953 6.5241 119.299 6.54646C119.645 6.56883 119.989 6.47888 120.28 6.29002C120.563 6.10805 120.784 5.84383 120.913 5.53281C121.041 5.2218 121.072 4.87886 121 4.55002C120.936 4.18006 120.744 3.84459 120.456 3.603C120.169 3.36141 119.805 3.22929 119.43 3.23002Z" fill="#ffffff" style="fill:#ffffff;fill:#ffffff;fill-opacity:1;"/>
<path id="Vector_12" d="M129.27 12.53C128.05 11.73 126.53 11.7 125.18 11.22C125.052 11.1974 124.933 11.1435 124.832 11.0632C124.73 10.9829 124.651 10.8787 124.6 10.76C124.565 10.6293 124.559 10.4925 124.584 10.3594C124.608 10.2263 124.661 10.1002 124.74 9.99001C124.96 9.76972 125.231 9.60707 125.53 9.51638C125.828 9.4257 126.144 9.40977 126.45 9.47001C126.821 9.49445 127.181 9.60473 127.502 9.79215C127.823 9.97957 128.096 10.239 128.3 10.55L128.4 10.7L130.46 9.53001L130.33 9.36001C129.863 8.74419 129.257 8.24743 128.562 7.91027C127.867 7.57312 127.102 7.40513 126.33 7.42001C125.524 7.33061 124.709 7.48836 123.995 7.87234C123.281 8.25631 122.7 8.84838 122.33 9.57001C122.177 9.94091 122.107 10.3404 122.125 10.741C122.142 11.1415 122.246 11.5336 122.43 11.89C122.855 12.569 123.512 13.0701 124.28 13.3C125.118 13.5579 125.969 13.7715 126.83 13.94C127.189 14.012 127.53 14.1585 127.83 14.37C127.971 14.4921 128.06 14.663 128.081 14.8484C128.101 15.0339 128.051 15.2201 127.94 15.37C127.55 16.1 126.54 16.17 125.81 16.08C125.398 16.0119 125.005 15.855 124.66 15.6201C124.315 15.3853 124.024 15.0782 123.81 14.72L123.71 14.57L121.6 15.77L121.7 15.93C122.14 16.6981 122.802 17.3151 123.6 17.7C124.454 18.0684 125.38 18.2426 126.31 18.21C127.264 18.2195 128.201 17.9558 129.01 17.45C129.406 17.1971 129.741 16.8598 129.992 16.4622C130.243 16.0646 130.402 15.6165 130.46 15.15C130.531 14.6453 130.457 14.1308 130.246 13.6667C130.035 13.2027 129.697 12.8084 129.27 12.53Z" fill="#ffffff" style="fill:#ffffff;fill:#ffffff;fill-opacity:1;"/>
<path id="Vector_13" d="M140.47 8.99996C139.691 8.22797 138.692 7.7149 137.61 7.53053C136.529 7.34615 135.417 7.49943 134.425 7.96951C133.434 8.4396 132.611 9.20366 132.069 10.1578C131.528 11.1119 131.293 12.2097 131.397 13.302C131.501 14.3942 131.94 15.4278 132.652 16.2622C133.365 17.0966 134.317 17.6913 135.379 17.9653C136.442 18.2394 137.563 18.1795 138.59 17.7939C139.617 17.4082 140.501 16.7155 141.12 15.81C141.809 14.7725 142.121 13.5296 142.002 12.2897C141.884 11.0499 141.343 9.88837 140.47 8.99996ZM136.67 15.92C136.051 15.9182 135.448 15.7251 134.943 15.367C134.438 15.009 134.057 14.5035 133.85 13.92C133.642 13.3181 133.613 12.6685 133.767 12.0505C133.922 11.4325 134.253 10.8729 134.72 10.44C135.206 10.0256 135.811 9.777 136.448 9.73024C137.084 9.68348 137.719 9.84102 138.26 10.18C138.785 10.5277 139.195 11.0227 139.438 11.6028C139.682 12.1828 139.749 12.822 139.63 13.44C139.497 14.1305 139.13 14.7542 138.591 15.2058C138.052 15.6575 137.373 15.9097 136.67 15.92Z" fill="#ffffff" style="fill:#ffffff;fill:#ffffff;fill-opacity:1;"/>
<path id="Vector_14" d="M149.83 7.89999C149.272 7.59188 148.637 7.44964 148 7.48999C147.38 7.48616 146.772 7.6634 146.25 7.99999C145.959 8.19329 145.707 8.44118 145.51 8.72998V7.62999H143.2V18H145.57V12.17C145.524 11.7883 145.581 11.4011 145.736 11.0492C145.891 10.6973 146.137 10.3935 146.45 10.17C146.813 9.97495 147.219 9.87516 147.63 9.87999C148.05 9.84376 148.472 9.93432 148.84 10.14L149.04 10.27L150 7.99999L149.83 7.89999Z" fill="#ffffff" style="fill:#ffffff;fill:#ffffff;fill-opacity:1;"/>
<path id="Vector_15" d="M30.8799 25.24H33.4799C33.8034 25.2189 34.1278 25.2645 34.433 25.3738C34.7382 25.4831 35.0177 25.6539 35.2543 25.8756C35.4908 26.0973 35.6794 26.3651 35.8083 26.6626C35.9372 26.96 36.0038 27.2808 36.0038 27.605C36.0038 27.9292 35.9372 28.2499 35.8083 28.5474C35.6794 28.8448 35.4908 29.1127 35.2543 29.3344C35.0177 29.556 34.7382 29.7268 34.433 29.8362C34.1278 29.9455 33.8034 29.991 33.4799 29.97H31.8799V31.97H30.8799V25.24ZM31.8799 26.15V29H33.3999C33.5998 29.0166 33.8009 28.9916 33.9906 28.9266C34.1803 28.8615 34.3545 28.7578 34.502 28.622C34.6496 28.4862 34.7674 28.3212 34.848 28.1376C34.9286 27.9539 34.9702 27.7555 34.9702 27.555C34.9702 27.3544 34.9286 27.1561 34.848 26.9724C34.7674 26.7887 34.6496 26.6238 34.502 26.488C34.3545 26.3522 34.1803 26.2485 33.9906 26.1834C33.8009 26.1183 33.5998 26.0933 33.3999 26.11L31.8799 26.15Z" fill="#ffffff" style="fill:#ffffff;fill:#ffffff;fill-opacity:1;"/>
<path id="Vector_16" d="M36.6496 29.45C36.6436 28.9385 36.7899 28.4367 37.0697 28.0085C37.3496 27.5803 37.7504 27.245 38.2213 27.0451C38.6922 26.8452 39.2118 26.7898 39.7143 26.8859C40.2167 26.9821 40.6792 27.2254 41.043 27.585C41.4069 27.9446 41.6556 28.4042 41.7576 28.9055C41.8596 29.4068 41.8103 29.9271 41.6159 30.4002C41.4216 30.8734 41.0909 31.2781 40.666 31.563C40.2411 31.8478 39.7411 31.9999 39.2296 32C38.5497 32.0026 37.8965 31.7358 37.4129 31.2578C36.9293 30.7799 36.6549 30.1298 36.6496 29.45ZM40.8196 29.45C40.8078 29.1383 40.7047 28.837 40.5229 28.5836C40.3412 28.3301 40.089 28.1357 39.7976 28.0245C39.5063 27.9133 39.1886 27.8902 38.8842 27.9582C38.5799 28.0261 38.3022 28.1821 38.0858 28.4067C37.8694 28.6312 37.7238 28.9145 37.6672 29.2212C37.6105 29.5279 37.6453 29.8444 37.7672 30.1315C37.8891 30.4185 38.0928 30.6634 38.3528 30.8356C38.6128 31.0078 38.9177 31.0997 39.2296 31.1C39.4427 31.0974 39.6532 31.0525 39.8489 30.9679C40.0446 30.8833 40.2215 30.7607 40.3694 30.6073C40.5173 30.4538 40.6333 30.2724 40.7106 30.0738C40.7878 29.8751 40.8249 29.6631 40.8196 29.45Z" fill="#ffffff" style="fill:#ffffff;fill:#ffffff;fill-opacity:1;"/>
<path id="Vector_17" d="M42.2598 27H43.2598L44.4098 30.6L45.7798 27H46.7798L48.1098 30.6L49.2598 27H50.2598L48.5398 31.95H47.5398L46.2498 28.3L44.8698 31.93H43.8698L42.2598 27Z" fill="#ffffff" style="fill:#ffffff;fill:#ffffff;fill-opacity:1;"/>
<path id="Vector_18" d="M50.7398 29.47C50.733 29.1297 50.7948 28.7916 50.9213 28.4756C51.0478 28.1596 51.2365 27.8723 51.4763 27.6307C51.716 27.3891 52.0018 27.1982 52.3168 27.0692C52.6318 26.9403 52.9694 26.8759 53.3098 26.88C53.6455 26.8689 53.9799 26.9267 54.2924 27.0498C54.6049 27.1729 54.8889 27.3587 55.1268 27.5958C55.3648 27.8328 55.5517 28.116 55.676 28.4281C55.8004 28.7401 55.8595 29.0743 55.8498 29.41V29.82H51.6898C51.7664 30.1506 51.9391 30.4512 52.1861 30.6839C52.4332 30.9166 52.7436 31.071 53.0782 31.1276C53.4128 31.1843 53.7567 31.1407 54.0666 31.0023C54.3765 30.8639 54.6386 30.637 54.8198 30.35L55.6298 30.84C55.3858 31.2126 55.0493 31.5154 54.6531 31.7188C54.2569 31.9221 53.8147 32.019 53.3698 32C53.0281 32.0178 52.6865 31.9653 52.366 31.8458C52.0455 31.7263 51.7529 31.5422 51.5063 31.3051C51.2598 31.0679 51.0646 30.7827 50.9327 30.467C50.8009 30.1514 50.7352 29.812 50.7398 29.47ZM51.7398 28.98H54.8598C54.8053 28.6186 54.6164 28.2912 54.3309 28.0631C54.0453 27.8351 53.6842 27.7232 53.3198 27.75C52.9513 27.7434 52.5919 27.8642 52.3022 28.0919C52.0125 28.3197 51.8103 28.6404 51.7298 29L51.7398 28.98Z" fill="#ffffff" style="fill:#ffffff;fill:#ffffff;fill-opacity:1;"/>
<path id="Vector_19" d="M56.8898 27.0001H57.8898V27.8601C57.9767 27.5773 58.156 27.332 58.399 27.1633C58.642 26.9947 58.9346 26.9125 59.2298 26.9301C59.5216 26.9193 59.8111 26.9848 60.0698 27.1201L59.6798 28.0701C59.4769 27.9427 59.2388 27.8832 58.9998 27.9001C58.2898 27.9001 57.8398 28.2501 57.8398 29.1401V31.9301H56.8398L56.8898 27.0001Z" fill="#ffffff" style="fill:#ffffff;fill:#ffffff;fill-opacity:1;"/>
<path id="Vector_20" d="M60.27 29.47C60.2633 29.1289 60.3253 28.7899 60.4524 28.4732C60.5796 28.1566 60.7692 27.8688 61.01 27.6271C61.2508 27.3854 61.5378 27.1946 61.854 27.0663C62.1701 26.9379 62.5089 26.8746 62.85 26.88C63.1857 26.8689 63.5201 26.9267 63.8326 27.0498C64.1452 27.1729 64.4291 27.3587 64.6671 27.5958C64.9051 27.8328 65.092 28.116 65.2163 28.4281C65.3407 28.7401 65.3998 29.0743 65.39 29.41V29.82H61.23C61.3043 30.1511 61.4753 30.4526 61.7215 30.6862C61.9676 30.9198 62.2777 31.0749 62.6122 31.1317C62.9468 31.1885 63.2906 31.1446 63.6001 31.0054C63.9096 30.8661 64.1706 30.638 64.35 30.35L65.17 30.84C64.9245 31.2134 64.5862 31.5166 64.1883 31.7199C63.7904 31.9233 63.3465 32.0198 62.9 32C62.5588 32.0163 62.2178 31.9629 61.8979 31.8428C61.578 31.7227 61.286 31.5386 61.0398 31.3018C60.7936 31.0649 60.5983 30.7803 60.4659 30.4653C60.3336 30.1503 60.2669 29.8116 60.27 29.47ZM61.27 28.98H64.4C64.3456 28.6186 64.1567 28.2912 63.8711 28.0631C63.5856 27.8351 63.2245 27.7232 62.86 27.75C62.4908 27.7448 62.1309 27.8659 61.8399 28.0932C61.5489 28.3206 61.3443 28.6405 61.26 29L61.27 28.98Z" fill="#ffffff" style="fill:#ffffff;fill:#ffffff;fill-opacity:1;"/>
<path id="Vector_21" d="M66.2604 29.45C66.2483 29.116 66.3038 28.783 66.4236 28.471C66.5434 28.159 66.7251 27.8744 66.9577 27.6343C67.1902 27.3943 67.4689 27.2037 67.777 27.0741C68.0851 26.9445 68.4162 26.8785 68.7504 26.88C69.0731 26.8778 69.3923 26.9475 69.6846 27.0842C69.977 27.2208 70.2352 27.421 70.4404 27.67V24.67H71.4404V31.91H70.4404V31.2C70.2391 31.4589 69.9813 31.6682 69.6866 31.8121C69.392 31.9559 69.0683 32.0305 68.7404 32.03C68.407 32.0275 68.0774 31.9584 67.7711 31.8266C67.4647 31.6948 67.1879 31.503 66.9568 31.2626C66.7257 31.0222 66.545 30.738 66.4254 30.4267C66.3058 30.1154 66.2497 29.7833 66.2604 29.45ZM70.4904 29.45C70.4806 29.1295 70.3764 28.8191 70.191 28.5575C70.0056 28.2959 69.7471 28.0948 69.448 27.9794C69.1488 27.8639 68.8223 27.8393 68.5092 27.9085C68.1961 27.9778 67.9104 28.1378 67.6878 28.3686C67.4653 28.5994 67.3157 28.8908 67.2579 29.2062C67.2001 29.5216 67.2366 29.847 67.3628 30.1418C67.489 30.4365 67.6994 30.6875 67.9676 30.8633C68.2357 31.0391 68.5498 31.1319 68.8704 31.13C69.0892 31.1302 69.3057 31.0861 69.507 31.0004C69.7082 30.9146 69.89 30.789 70.0414 30.6311C70.1928 30.4732 70.3106 30.2862 70.3878 30.0815C70.465 29.8768 70.4999 29.6586 70.4904 29.44V29.45Z" fill="#ffffff" style="fill:#ffffff;fill:#ffffff;fill-opacity:1;"/>
<path id="Vector_22" d="M75.9004 31.2101V31.9301H74.9004V24.6901H75.9004V27.6901C76.1012 27.4346 76.358 27.2286 76.651 27.0882C76.9441 26.9477 77.2655 26.8765 77.5904 26.8801C78.2456 26.9209 78.8606 27.21 79.3101 27.6884C79.7596 28.1668 80.0098 28.7986 80.0098 29.4551C80.0098 30.1115 79.7596 30.7433 79.3101 31.2217C78.8606 31.7001 78.2456 31.9892 77.5904 32.0301C77.2644 32.034 76.9419 31.9619 76.6486 31.8196C76.3553 31.6772 76.0991 31.4686 75.9004 31.2101ZM79.0904 29.4401C79.108 29.2159 79.079 28.9906 79.0053 28.7782C78.9317 28.5658 78.8148 28.371 78.6622 28.2059C78.5096 28.0409 78.3245 27.9092 78.1185 27.8191C77.9126 27.729 77.6902 27.6825 77.4654 27.6825C77.2406 27.6825 77.0182 27.729 76.8122 27.8191C76.6063 27.9092 76.4212 28.0409 76.2685 28.2059C76.1159 28.371 75.9991 28.5658 75.9254 28.7782C75.8517 28.9906 75.8228 29.2159 75.8404 29.4401C75.8228 29.6642 75.8517 29.8895 75.9254 30.1019C75.9991 30.3143 76.1159 30.5091 76.2685 30.6742C76.4212 30.8393 76.6063 30.971 76.8122 31.0611C77.0182 31.1511 77.2406 31.1976 77.4654 31.1976C77.6902 31.1976 77.9126 31.1511 78.1185 31.0611C78.3245 30.971 78.5096 30.8393 78.6622 30.6742C78.8148 30.5091 78.9317 30.3143 79.0053 30.1019C79.079 29.8895 79.108 29.6642 79.0904 29.4401Z" fill="#ffffff" style="fill:#ffffff;fill:#ffffff;fill-opacity:1;"/>
<path id="Vector_23" d="M80 33.37L80.59 32.53C80.672 32.6237 80.7737 32.6983 80.8877 32.7484C81.0018 32.7985 81.1255 32.823 81.25 32.82C81.76 32.82 82.03 32.61 82.35 31.9L82.44 31.69L80.44 26.98H81.51L83 30.53L84.38 27H85.44L83.23 32.2C82.73 33.37 82.23 33.78 81.23 33.78C80.7877 33.7725 80.3583 33.6294 80 33.37Z" fill="#ffffff" style="fill:#ffffff;fill:#ffffff;fill-opacity:1;"/>
<path id="Vector_24" d="M90.7798 25.24H91.7798L94.3698 31.93H93.3698L92.8298 30.5H89.8298L89.2998 31.93H88.2998L90.7798 25.24ZM90.1298 29.55H92.4398L91.2798 26.48L90.1298 29.55Z" fill="#ffffff" style="fill:#ffffff;fill:#ffffff;fill-opacity:1;"/>
<path id="Vector_25" d="M95.2297 27H96.2297V27.69C96.4082 27.439 96.6457 27.2356 96.9212 27.0979C97.1967 26.9601 97.5018 26.8922 97.8097 26.9C98.0882 26.8989 98.3639 26.9559 98.6191 27.0675C98.8742 27.1791 99.1033 27.3427 99.2916 27.5479C99.4799 27.7532 99.6232 27.9954 99.7124 28.2593C99.8017 28.5231 99.8348 28.8026 99.8097 29.08V31.95H98.8097V29.15C98.8351 28.9732 98.8209 28.7929 98.7683 28.6222C98.7157 28.4515 98.626 28.2945 98.5055 28.1626C98.3851 28.0306 98.2369 27.927 98.0716 27.8591C97.9064 27.7913 97.7281 27.7608 97.5497 27.77C97.3645 27.7693 97.1811 27.8072 97.0114 27.8814C96.8417 27.9556 96.6894 28.0645 96.5642 28.201C96.439 28.3375 96.3436 28.4987 96.2843 28.6741C96.225 28.8496 96.203 29.0355 96.2197 29.22V31.95H95.2197L95.2297 27Z" fill="#ffffff" style="fill:#ffffff;fill:#ffffff;fill-opacity:1;"/>
<path id="Vector_26" d="M100.84 29.45C100.827 29.116 100.883 28.783 101.003 28.471C101.123 28.159 101.304 27.8744 101.537 27.6343C101.769 27.3943 102.048 27.2037 102.356 27.0741C102.664 26.9445 102.995 26.8785 103.33 26.88C103.654 26.8787 103.975 26.9509 104.267 27.0912C104.56 27.2315 104.817 27.4362 105.02 27.69V27H106.02V31.55C106.023 31.8812 105.958 32.2095 105.83 32.5147C105.701 32.82 105.512 33.0959 105.273 33.3253C105.034 33.5547 104.751 33.7329 104.441 33.849C104.131 33.965 103.8 34.0164 103.47 34C103.008 34.0455 102.542 33.9782 102.111 33.8041C101.681 33.6299 101.3 33.354 101 33L101.8 32.35C101.978 32.6177 102.226 32.8317 102.516 32.9691C102.807 33.1065 103.13 33.1622 103.45 33.13C103.657 33.1418 103.865 33.1093 104.059 33.035C104.253 32.9606 104.429 32.8459 104.575 32.6985C104.722 32.5511 104.835 32.3743 104.908 32.1798C104.982 31.9852 105.013 31.7774 105 31.57V31.19C104.801 31.453 104.544 31.6659 104.249 31.8118C103.954 31.9576 103.629 32.0324 103.3 32.03C102.968 32.0249 102.64 31.9538 102.336 31.8208C102.032 31.6878 101.758 31.4957 101.529 31.2555C101.3 31.0154 101.121 30.7321 101.003 30.4221C100.884 30.1121 100.829 29.7817 100.84 29.45ZM105.07 29.45C105.06 29.1295 104.956 28.8191 104.77 28.5575C104.585 28.2959 104.326 28.0948 104.027 27.9793C103.728 27.8639 103.401 27.8393 103.088 27.9085C102.775 27.9778 102.49 28.1378 102.267 28.3686C102.044 28.5994 101.895 28.8908 101.837 29.2062C101.779 29.5215 101.816 29.847 101.942 30.1417C102.068 30.4365 102.279 30.6875 102.547 30.8633C102.815 31.0391 103.129 31.1318 103.45 31.13C103.668 31.1302 103.885 31.0861 104.086 31.0004C104.287 30.9146 104.469 30.789 104.621 30.6311C104.772 30.4731 104.89 30.2862 104.967 30.0815C105.044 29.8768 105.079 29.6586 105.07 29.44V29.45Z" fill="#ffffff" style="fill:#ffffff;fill:#ffffff;fill-opacity:1;"/>
<path id="Vector_27" d="M107.73 24.79C107.871 24.788 108.009 24.8282 108.128 24.9055C108.246 24.9827 108.339 25.0935 108.394 25.2236C108.449 25.3538 108.463 25.4973 108.436 25.636C108.409 25.7746 108.341 25.9021 108.242 26.002C108.142 26.1018 108.014 26.1697 107.876 26.1967C107.737 26.2238 107.593 26.2089 107.463 26.1539C107.333 26.099 107.222 26.0064 107.145 25.8881C107.068 25.7699 107.028 25.6312 107.03 25.49C107.027 25.3973 107.043 25.305 107.077 25.2189C107.111 25.1327 107.163 25.0544 107.228 24.9888C107.294 24.9233 107.372 24.8718 107.458 24.8376C107.545 24.8034 107.637 24.7872 107.73 24.79ZM107.23 26.98H108.23V31.93H107.23V26.98Z" fill="#ffffff" style="fill:#ffffff;fill:#ffffff;fill-opacity:1;"/>
</g>
</g>
</svg>
