<svg width="206" height="31" viewBox="0 0 206 31" fill="none" xmlns="http://www.w3.org/2000/svg">
<path d="M30.7656 25.101V2.85026C30.7656 2.67093 30.8898 2.51574 31.0657 2.47436L34.1832 1.54322C34.3902 1.49494 34.5971 1.62599 34.6454 1.83291C34.6523 1.8605 34.6557 1.89154 34.6557 1.91912V25.101C34.6557 25.3148 34.4833 25.4873 34.2695 25.4873H31.1519C30.9381 25.4873 30.7656 25.3148 30.7656 25.101Z" fill="white"/>
<path d="M46.5973 23.9346C44.8453 28.0523 43.6487 29.7697 41.0863 29.8352C40.0896 29.8352 38.7274 29.5248 37.679 28.8006C37.5445 28.7075 37.4825 28.542 37.5204 28.3833L38.017 26.4728C38.0722 26.2659 38.2825 26.1417 38.4895 26.1969C38.5136 26.2038 38.5377 26.2107 38.5584 26.221C39.2033 26.5245 39.8482 26.7211 40.4069 26.7211C41.6381 26.7211 42.6451 25.2313 42.383 23.0586L36.9238 9.65023C36.8445 9.45366 36.9376 9.22605 37.1341 9.14673C37.179 9.12949 37.2307 9.11914 37.279 9.11914H40.3621C40.5207 9.11914 40.6656 9.21915 40.7207 9.36744L44.6143 19.5272L48.4423 9.37089C48.4975 9.21915 48.6423 9.12259 48.8044 9.12259H51.8909C52.1048 9.12259 52.2772 9.29502 52.2772 9.50884C52.2772 9.55712 52.2668 9.6054 52.2496 9.65023L46.5973 23.9346Z" fill="white"/>
<path d="M63.116 24.82C63.116 24.9717 63.0263 25.1131 62.8849 25.1718C62.2607 25.4442 61.533 25.6477 60.295 25.6477C57.3464 25.6477 56.2428 23.7337 56.2428 19.2608V12.2255H54.7495C54.5357 12.2255 54.3633 12.0531 54.3633 11.8393V9.49762C54.3633 9.2838 54.5357 9.11137 54.7495 9.11137H56.2428V5.83514C56.2428 5.64891 56.3773 5.48683 56.5635 5.45579L59.7156 4.59707C59.926 4.56259 60.126 4.70053 60.1605 4.9109C60.1639 4.93159 60.1674 4.95229 60.1674 4.97643V9.11482H62.7332C62.947 9.11482 63.1194 9.28725 63.1194 9.50107V11.8427C63.1194 12.0565 62.947 12.229 62.7332 12.229H60.1674V18.7124C60.1674 21.5472 60.426 22.7474 62.6677 22.368C62.878 22.3335 63.078 22.4749 63.1125 22.6853C63.116 22.706 63.116 22.7267 63.116 22.7474V24.82Z" fill="white"/>
<path d="M67.7945 6.17327C66.691 6.17327 65.7529 5.26627 65.7529 4.13166C65.7529 3.06258 66.6944 2.12109 67.7945 2.12109C68.9602 2.12109 69.8361 3.06258 69.8361 4.13166C69.8396 5.26627 68.9636 6.17327 67.7945 6.17327ZM65.8495 25.1029V9.50467C65.8495 9.29085 66.0219 9.11842 66.2357 9.11842H69.3533C69.5671 9.11842 69.7396 9.29085 69.7396 9.50467V25.1029C69.7396 25.3168 69.5671 25.4892 69.3533 25.4892H66.2357C66.0219 25.4892 65.8495 25.3168 65.8495 25.1029Z" fill="white"/>
<path d="M80.988 25.65C76.353 25.65 72.625 22.0841 72.625 17.3181C72.625 12.552 76.353 8.95508 80.988 8.95508C83.4986 8.95508 85.5437 9.96554 87.0473 11.5795C87.1921 11.7347 87.1852 11.9796 87.0266 12.1278L87.0231 12.1313L85.0609 13.8936C84.9022 14.035 84.6574 14.0212 84.516 13.8625C84.5125 13.8556 84.5056 13.8522 84.5022 13.8453C83.5572 12.6693 82.3364 12.0692 81.0846 12.0692C78.4912 12.0692 76.5116 14.2729 76.5116 17.3215C76.5116 20.3356 78.4912 22.5083 81.0846 22.5083C82.333 22.5083 83.5572 21.991 84.5022 20.7771C84.6332 20.6081 84.8746 20.5736 85.0471 20.7047C85.054 20.7116 85.0609 20.715 85.0712 20.7219L87.0266 22.4807C87.1852 22.6256 87.199 22.8704 87.0542 23.0291L87.0507 23.0325C85.5437 24.6396 83.4986 25.65 80.988 25.65Z" fill="white"/>
<path d="M97.6864 16.4426C99.7936 17.3185 102.032 18.5497 102.032 21.2086C102.032 23.8675 99.666 25.6505 96.2276 25.6505C93.6653 25.6505 91.1892 24.7883 89.5545 23.3088C89.3958 23.164 89.3855 22.9191 89.5269 22.764C89.5338 22.7571 89.5373 22.7536 89.5441 22.7467L91.403 20.9362C91.5444 20.7982 91.7651 20.7913 91.9168 20.9155C92.9756 21.788 94.4343 22.5053 95.8379 22.5053C97.3278 22.5053 98.1382 22.019 98.1382 21.0155C98.1382 19.7498 96.776 19.2325 94.4757 18.229C91.365 16.9012 89.9373 15.6045 89.9373 13.4319C89.9373 10.4488 92.8893 8.95898 95.9035 8.95898C98.0382 8.95898 100.2 9.67631 101.718 11.1385C101.873 11.2868 101.877 11.5317 101.725 11.6869C101.721 11.6903 101.718 11.6938 101.718 11.6938L99.9246 13.4353C99.7798 13.5767 99.5487 13.5802 99.4004 13.4457C98.49 12.6353 97.3036 12.0697 96.0621 12.0697C94.8965 12.0697 93.8239 12.587 93.8239 13.5595C93.8308 14.6596 94.7689 15.1804 97.6864 16.4426Z" fill="white"/>
<path d="M4.20542 12.337C2.91928 12.337 1.67201 11.6664 0.988436 10.4709C-0.0255789 8.6956 0.589957 6.43431 2.36529 5.4203L10.1146 0.988436C11.8899 -0.0255789 14.1512 0.589957 15.1652 2.36529C16.1792 4.14063 15.5637 6.40192 13.7884 7.41917L6.04231 11.8478C5.46241 12.1782 4.83068 12.337 4.20542 12.337Z" fill="#ffffff"/>
<path d="M4.20542 22.9275C2.91928 22.9275 1.67201 22.2569 0.988436 21.0614C-0.0255788 19.2861 0.589957 17.0248 2.36529 16.0108L10.1113 11.5822C11.8867 10.5682 14.148 11.1837 15.162 12.959C16.1792 14.7311 15.5637 16.9957 13.7884 18.0097L6.04231 22.4383C5.46241 22.772 4.83068 22.9275 4.20542 22.9275Z" fill="#ffffff"/>
<path d="M10.5746 30.0603C9.28842 30.0603 8.04115 29.3897 7.35758 28.1943C6.34356 26.4189 6.9591 24.1576 8.73443 23.1436L16.4805 18.715C18.2558 17.701 20.5171 18.3165 21.5311 20.0919C22.5451 21.8672 21.9296 24.1285 20.1543 25.1425L12.4082 29.5711C11.8283 29.9016 11.1966 30.0603 10.5746 30.0603Z" fill="#ffffff"/>
<path d="M163.487 26.6329V24.1542L161.081 19.9258H162.55L164.195 22.9565L165.841 19.9258H167.299L164.893 24.1542V26.6329H163.487Z" fill="#ffffff"/>
<path d="M154.666 26.6329V19.9258H155.885L159.061 24.3937V19.9258H160.467V26.6329H159.249L156.072 22.165V26.6329H154.666Z" fill="#ffffff"/>
<path d="M146.929 26.6329L149.491 19.9258H151.032L153.584 26.6329H152.126L151.49 25.0186H149.022L148.397 26.6329H146.929ZM149.23 23.9355H151.282L150.251 21.238L149.23 23.9355Z" fill="#ffffff"/>
<path d="M141.846 26.6329V19.9258H144.991C146.564 19.9258 147.293 20.9152 147.293 22.2379C147.293 23.6022 146.387 24.5291 144.949 24.5291H143.252V26.6329H141.846ZM143.252 23.4147H144.658C145.46 23.4147 145.876 22.9565 145.876 22.2379C145.876 21.4672 145.491 21.0402 144.71 21.0402H143.252V23.4147Z" fill="#ffffff"/>
<path d="M133.799 26.6329V19.9258H135.215L137.184 23.9563L139.152 19.9258H140.558V26.6329H139.152V22.2691L137.59 25.4768H136.777L135.205 22.2691V26.6329H133.799Z" fill="#ffffff"/>
<path d="M129.819 26.7377C127.664 26.7377 126.56 25.6129 126.56 23.3112C126.56 20.8533 127.664 19.8223 129.819 19.8223C131.975 19.8223 133.079 20.8533 133.079 23.3112C133.079 25.6129 131.975 26.7377 129.819 26.7377ZM129.819 25.54C131.08 25.54 131.652 24.8213 131.652 23.3112C131.652 21.6344 131.08 21.02 129.819 21.02C128.559 21.02 127.986 21.6344 127.986 23.3112C127.986 24.8213 128.559 25.54 129.819 25.54Z" fill="#ffffff"/>
<path d="M124.157 26.7377C121.908 26.7377 120.679 25.4358 120.679 23.3425C120.679 21.1241 121.835 19.8223 124.147 19.8223C124.949 19.8223 125.574 19.9472 126.146 20.1555V21.3845C125.563 21.1449 124.938 21.02 124.251 21.02C122.72 21.02 122.106 21.7802 122.106 23.3425C122.106 24.8213 122.814 25.5504 124.272 25.5504C124.918 25.5504 125.574 25.4358 126.157 25.1963V26.4356C125.584 26.6231 124.959 26.7377 124.157 26.7377Z" fill="#ffffff"/>
<path d="M199.81 14.6329V7.92578H201.486V10.5295L203.798 7.92578H205.715L203.319 10.6649L205.861 14.6329H204.069L202.278 11.7376L201.486 12.602V14.6329H199.81Z" fill="#ffffff"/>
<path d="M196.825 14.7377C194.482 14.7377 193.222 13.4671 193.222 11.332C193.222 9.09286 194.419 7.82227 196.815 7.82227C197.638 7.82227 198.252 7.95766 198.846 8.16595V9.63443C198.242 9.38448 197.627 9.2595 196.94 9.2595C195.544 9.2595 194.93 9.90522 194.93 11.332C194.93 12.6964 195.617 13.3108 196.961 13.3108C197.617 13.3108 198.252 13.1963 198.856 12.9463V14.4252C198.273 14.6231 197.648 14.7377 196.825 14.7377Z" fill="#ffffff"/>
<path d="M186.11 14.6329L188.672 7.92578H190.485L193.047 14.6329H191.297L190.693 13.1123H188.454L187.86 14.6329H186.11ZM188.683 11.873H190.464L189.568 9.54007L188.683 11.873Z" fill="#ffffff"/>
<path d="M183.23 14.6329V9.21721H181.262V7.92578H186.875V9.21721H184.907V14.6329H183.23Z" fill="#ffffff"/>
<path d="M178.197 14.7377C177.312 14.7377 176.51 14.6023 175.958 14.3523V12.9255C176.572 13.1963 177.364 13.3733 178.03 13.3733C178.863 13.3733 179.27 13.2796 179.27 12.7589C179.27 12.2381 178.863 12.1131 177.707 11.7799C176.333 11.3737 175.854 10.8634 175.854 9.80107C175.854 8.52005 176.78 7.82227 178.572 7.82227C179.342 7.82227 180.144 7.95766 180.603 8.11388V9.55111C179.999 9.31157 179.384 9.20743 178.822 9.20743C178.072 9.20743 177.562 9.29075 177.562 9.79065C177.562 10.2281 177.884 10.3426 178.957 10.6238C180.603 11.0717 180.988 11.759 180.988 12.7589C180.988 13.9461 180.082 14.7377 178.197 14.7377Z" fill="#ffffff"/>
<path d="M172.139 14.6329V9.21721H170.171V7.92578H175.784V9.21721H173.816V14.6329H172.139Z" fill="#ffffff"/>
<path d="M163.445 14.6329V7.92578H164.883L167.736 11.9355V7.92578H169.423V14.6329H167.976L165.122 10.6336V14.6329H163.445Z" fill="#ffffff"/>
<path d="M157.595 14.6329V7.92578H162.542V9.21721H159.272V10.6232H162.156V11.9355H159.272V13.3414H162.542V14.6329H157.595Z" fill="#ffffff"/>
<path d="M153.204 14.6329V9.21721H151.235V7.92578H156.849V9.21721H154.881V14.6329H153.204Z" fill="#ffffff"/>
<path d="M144.51 14.6329V7.92578H145.947L148.801 11.9355V7.92578H150.488V14.6329H149.04L146.187 10.6336V14.6329H144.51Z" fill="#ffffff"/>
<path d="M140.207 14.7377C138.02 14.7377 136.864 13.6649 136.864 11.3112C136.864 8.8325 138.02 7.82227 140.207 7.82227C142.384 7.82227 143.551 8.8325 143.551 11.3112C143.551 13.6649 142.384 14.7377 140.207 14.7377ZM140.207 13.3108C141.332 13.3108 141.832 12.686 141.832 11.3112C141.832 9.81148 141.332 9.2595 140.207 9.2595C139.072 9.2595 138.572 9.81148 138.572 11.3112C138.572 12.686 139.072 13.3108 140.207 13.3108Z" fill="#ffffff"/>
<path d="M134.557 14.7377C132.213 14.7377 130.953 13.4671 130.953 11.332C130.953 9.09286 132.151 7.82227 134.546 7.82227C135.369 7.82227 135.983 7.95766 136.577 8.16595V9.63443C135.973 9.38448 135.359 9.2595 134.671 9.2595C133.276 9.2595 132.661 9.90522 132.661 11.332C132.661 12.6964 133.349 13.3108 134.692 13.3108C135.348 13.3108 135.983 13.1963 136.588 12.9463V14.4252C136.004 14.6231 135.379 14.7377 134.557 14.7377Z" fill="#ffffff"/>
<path d="M120.679 14.6329L123.241 7.92578H124.782L127.334 14.6329H125.876L125.24 13.0186H122.772L122.147 14.6329H120.679ZM122.98 11.9355H125.032L124.001 9.23804L122.98 11.9355Z" fill="#ffffff"/>
<path opacity="0.73" d="M111.162 3.71484L111.162 30.4999" stroke="#ffffff" stroke-width="0.608751"/>
<defs>
<linearGradient id="paint0_linear_218_324" x1="6.86694" y1="24.1417" x2="22.0205" y2="24.1417" gradientUnits="userSpaceOnUse">
<stop stop-color="#28AEB9"/>
<stop offset="1" stop-color="#18D6A3"/>
</linearGradient>
</defs>
</svg>
